# xmcd
#
# Track frame offsets: 
#        150
#        10559
#        22491
#        36508
#        46808
#        60589
#        74914
#        89838
#        101170
#        113863
#        128181
#        141962
#        154687
#        168778
#        181056
#        192619
#        206600
#        219554
#
# Disc length: 3120 seconds
#
# Revision: 2
# Processed by: cddbd v1.5.2PL0 Copyright (c) Steve Scherf et al.
# Submitted via: ExactAudioCopy v0.95b2
#
DISCID=120c2e12
DTITLE=Blind Willie McTell - The Essential Blind Willie McTell Disc 2
DYEAR=2001
DGENRE=Blues
TTITLE0=Hide Me In Thy Bosom
TTITLE1=Broke Down Engine Blues
TTITLE2=Good Little Thing (with Curley Weaver)
TTITLE3=It's Your Time To Worry (with Curley Weaver)
TTITLE4=Dying Crapshooter's Blues
TTITLE5=Low Rider's Blues (with Curley Weaver)
TTITLE6=This Is Not The Stove To Brown Your Bread (with Alfoncy and Beth
TTITLE6=enea Harris)
TTITLE7=Dark Night Blues
TTITLE8=I Got Religion, I'm So Glad (with Kate McTell)
TTITLE9=Georgia Rag
TTITLE10=You Was Born To Die (with Curley Weaver)
TTITLE11=Cold Winter Day (with Curley Weaver)
TTITLE12=Don't Let Nobody Turn You Around (with Kate McTell)
TTITLE13=Delia
TTITLE14=Talkin' To You Mama (with Curley Weaver)
TTITLE15=East St. Louis Blues (Fare You Well) (with Curley Weaver)
TTITLE16=Drive Away Blues
TTITLE17=Untitled
EXTD=
EXTT0=
EXTT1=
EXTT2=
EXTT3=
EXTT4=
EXTT5=
EXTT6=
EXTT7=
EXTT8=
EXTT9=
EXTT10=
EXTT11=
EXTT12=
EXTT13=
EXTT14=
EXTT15=
EXTT16=
EXTT17=
PLAYORDER=
